<svg width="30" height="30" viewBox="0 0 30 30" fill="none" xmlns="http://www.w3.org/2000/svg">
<path fill-rule="evenodd" clip-rule="evenodd" d="M14.9999 0.333496C23.1001 0.333496 29.6666 6.89999 29.6666 15.0002C29.6666 23.1003 23.1001 29.6668 14.9999 29.6668C6.89974 29.6668 0.333252 23.1003 0.333252 15.0002C0.333252 6.89999 6.89974 0.333496 14.9999 0.333496ZM20.9999 14.3335C20.2635 14.3335 19.6666 14.9305 19.6666 15.6668V17.0002L19.6576 17.1557C19.5806 17.8188 19.017 18.3335 18.3333 18.3335H12.2186L12.6094 17.943L12.7203 17.8174C13.127 17.2943 13.09 16.538 12.6094 16.0573C12.0887 15.5367 11.2445 15.5367 10.7238 16.0573L8.05711 18.724C8.01915 18.762 7.98348 18.8022 7.94619 18.8496C7.94015 18.8574 7.93421 18.8652 7.92834 18.8733C7.90457 18.9053 7.88221 18.9385 7.86125 18.9726C7.85139 18.9887 7.84192 19.005 7.83309 19.0211C7.81831 19.0478 7.80442 19.075 7.79148 19.1025L7.76139 19.1721C7.75101 19.1981 7.74141 19.2244 7.7329 19.2506C7.72622 19.271 7.72005 19.2915 7.71421 19.3124C7.70636 19.3409 7.69944 19.3698 7.69357 19.3992C7.68885 19.4223 7.68476 19.4456 7.68128 19.4682L7.67059 19.5575L7.66792 19.6415V19.5948L7.66681 19.6423V19.6926C7.66743 19.7237 7.66911 19.7548 7.67189 19.7866C7.67425 19.8131 7.67739 19.8394 7.68128 19.8648C7.68476 19.8881 7.68885 19.9113 7.69347 19.9346C7.69944 19.9638 7.70636 19.9927 7.71438 20.0215C7.72005 20.0421 7.72622 20.0626 7.73265 20.0825C7.74141 20.1092 7.75101 20.1356 7.76155 20.1619L7.79146 20.231C7.80442 20.2587 7.81831 20.2859 7.83281 20.3122L7.86134 20.361C7.88221 20.3952 7.90457 20.4283 7.92837 20.4606L7.95992 20.5002L8.04125 20.5935L8.05711 20.6096L10.7238 23.2763L10.8494 23.3872C11.3724 23.7939 12.1287 23.757 12.6094 23.2763L12.7203 23.1507C13.127 22.6276 13.09 21.8713 12.6094 21.3907L12.2199 21.0002H18.3333L18.5683 20.9934C20.668 20.8717 22.3333 19.1304 22.3333 17.0002V15.6668L22.3243 15.5113C22.2473 14.8482 21.6837 14.3335 20.9999 14.3335ZM19.1505 6.6131C18.6274 6.2064 17.8711 6.24338 17.3904 6.72402L17.2795 6.84963C16.8728 7.37268 16.9098 8.12899 17.3904 8.60964L17.7799 9.00016H11.6666L11.4316 9.00695C9.33181 9.12862 7.66659 10.8699 7.66659 13.0002V14.3335L7.67556 14.489C7.75258 15.1521 8.31614 15.6668 8.99992 15.6668C9.7363 15.6668 10.3333 15.0699 10.3333 14.3335V13.0002L10.3422 12.8447C10.4192 12.1815 10.9828 11.6668 11.6666 11.6668H17.7786L17.3904 12.0573L17.2795 12.183C16.8728 12.706 16.9098 13.4623 17.3904 13.943C17.9111 14.4637 18.7554 14.4637 19.2761 13.943L21.9427 11.2763L21.9762 11.2417C22.0018 11.2141 22.0263 11.1855 22.0537 11.1507C22.0597 11.1429 22.0656 11.1351 22.0715 11.127C22.0953 11.095 22.1176 11.0619 22.1386 11.0278C22.1484 11.0116 22.1579 10.9953 22.1667 10.9792C22.1815 10.9525 22.1954 10.9253 22.2084 10.8978L22.2385 10.8282C22.2488 10.8023 22.2584 10.7759 22.2669 10.7497C22.2736 10.7293 22.2798 10.7088 22.2856 10.6879C22.2935 10.6594 22.3004 10.6305 22.3063 10.6011C22.311 10.578 22.3151 10.5548 22.3186 10.5321L22.3284 10.4471L22.3333 10.3335C22.3333 10.3187 22.333 10.3039 22.3326 10.2905C22.3318 10.2665 22.3304 10.2425 22.3283 10.2174C22.3259 10.1896 22.3226 10.1621 22.3186 10.1355C22.3151 10.1122 22.311 10.089 22.3064 10.0658C22.3004 10.0365 22.2935 10.0076 22.2855 9.97884C22.2798 9.95822 22.2736 9.9377 22.2672 9.91784C22.2584 9.8911 22.2488 9.86472 22.2383 9.83838L22.2084 9.76936C22.1954 9.74164 22.1815 9.71444 22.167 9.68808L22.1385 9.63928C22.1176 9.60514 22.0953 9.57199 22.0715 9.53975L22.0359 9.49483L21.9573 9.4055L21.9427 9.39068L19.2761 6.72402L19.1505 6.6131Z" fill="#83ABFB"/>
</svg>
