<svg width="29" height="29" viewBox="0 0 29 29" fill="none" xmlns="http://www.w3.org/2000/svg">
<path d="M15.3334 0.666504C15.687 0.666504 16.0262 0.80698 16.2762 1.05703L27.7324 12.5132C29.2833 14.0733 29.2833 16.593 27.7296 18.156L18.1701 27.7155C17.4198 28.4666 16.4017 28.8886 15.3401 28.8886C14.2784 28.8886 13.2604 28.4666 12.5112 27.7165L1.05782 16.2765C0.807437 16.0264 0.666748 15.6871 0.666748 15.3332V1.99984C0.666748 1.26346 1.2637 0.666504 2.00008 0.666504H15.3334ZM8.01673 5.99984L7.76391 6.01329C6.77088 6.12882 6.00008 6.97417 6.00008 7.99984C6.00008 9.10441 6.89403 9.99984 7.99676 9.99984L8.24959 9.98638C9.24261 9.87085 10.0134 9.02551 10.0134 7.99984C10.0134 6.89527 9.11947 5.99984 8.01673 5.99984Z" fill="#70DE8C"/>
</svg>
